<svg width="15" height="19" viewBox="0 0 15 19" fill="none" xmlns="http://www.w3.org/2000/svg">
<path d="M5.707 1.414L6.414 0.707L5.707 0L5 0.707L5.707 1.414ZM13.707 18.414C13.9722 18.414 14.2266 18.3086 14.4141 18.1211C14.6016 17.9336 14.707 17.6792 14.707 17.414C14.707 17.1488 14.6016 16.8944 14.4141 16.7069C14.2266 16.5194 13.9722 16.414 13.707 16.414V18.414ZM11.414 5.707L6.414 0.707L5 2.121L10 7.121L11.414 5.707ZM5 0.707L0 5.707L1.414 7.121L6.414 2.121L5 0.707ZM4.707 1.414V11.414H6.707V1.414H4.707ZM11.707 18.414H13.707V16.414H11.707V18.414ZM4.707 11.414C4.707 13.2705 5.4445 15.051 6.75725 16.3637C8.07001 17.6765 9.85048 18.414 11.707 18.414V16.414C10.3809 16.414 9.10915 15.8872 8.17147 14.9495C7.23378 14.0119 6.707 12.7401 6.707 11.414H4.707Z" fill="#4F4E4E"/>
</svg>
