<svg width="16" height="16" viewBox="0 0 16 16" fill="none" xmlns="http://www.w3.org/2000/svg">
<path d="M13 13.5L2 2.5" stroke="#4F4E4E" stroke-miterlimit="10" stroke-linecap="round"/>
<path d="M7.60406 3.0895C7.47931 3.02221 7.33797 2.99182 7.19658 3.00189C7.05519 3.01196 6.91958 3.06208 6.80562 3.14638L6.785 3.16232L5.89375 3.892C5.86671 3.91412 5.84461 3.94166 5.82887 3.97285C5.81313 4.00404 5.8041 4.03818 5.80236 4.07307C5.80062 4.10796 5.80622 4.14283 5.81878 4.17542C5.83135 4.20802 5.8506 4.23762 5.87531 4.26232L7.57312 5.96013C7.60809 5.99513 7.65265 6.01897 7.70117 6.02864C7.74969 6.0383 7.79999 6.03335 7.8457 6.01441C7.8914 5.99547 7.93046 5.9634 7.95793 5.92225C7.9854 5.8811 8.00004 5.83273 8 5.78325V3.76794C8.0014 3.62964 7.96534 3.49355 7.89563 3.3741C7.82591 3.25465 7.72516 3.15631 7.60406 3.0895ZM7.85406 10.4779L3.02156 5.64669C2.92784 5.55291 2.80071 5.50019 2.66812 5.50013H1.75C1.55109 5.50013 1.36032 5.57915 1.21967 5.7198C1.07902 5.86045 1 6.05122 1 6.25013V9.75013C1 9.94904 1.07902 10.1398 1.21967 10.2805C1.36032 10.4211 1.55109 10.5001 1.75 10.5001H3.93L6.805 12.8536C6.92039 12.9392 7.05804 12.9897 7.20144 12.9991C7.34483 13.0085 7.48788 12.9763 7.61344 12.9064C7.73204 12.8388 7.83042 12.7407 7.89838 12.6223C7.96635 12.5039 8.00143 12.3695 8 12.2329V10.8311C8.00002 10.6987 7.94754 10.5717 7.85406 10.4779ZM11 8.00013C11 7.23263 10.8184 6.50419 10.4453 5.77294C10.4157 5.714 10.3748 5.6615 10.3248 5.61845C10.2749 5.57541 10.2169 5.54267 10.1542 5.52213C10.0915 5.50159 10.0254 5.49364 9.95967 5.49876C9.89393 5.50387 9.82984 5.52194 9.7711 5.55193C9.71237 5.58191 9.66014 5.62322 9.61744 5.67348C9.57474 5.72373 9.54239 5.78194 9.52228 5.84474C9.50216 5.90755 9.49467 5.97371 9.50023 6.03942C9.50579 6.10513 9.5243 6.1691 9.55469 6.22763C9.85438 6.8145 10 7.3945 10 8.00013C10 8.08346 9.99677 8.16815 9.99031 8.25419C9.98764 8.29004 9.99274 8.32605 10.0052 8.35976C10.0178 8.39346 10.0374 8.42408 10.0628 8.4495L10.5116 8.89825C10.544 8.93074 10.5847 8.95367 10.6293 8.96455C10.6739 8.97543 10.7206 8.97382 10.7643 8.95991C10.808 8.946 10.8471 8.92032 10.8772 8.88569C10.9073 8.85106 10.9273 8.80881 10.935 8.76357C10.978 8.51136 10.9998 8.25598 11 8.00013ZM13 8.00013C13 6.40075 12.5913 5.37857 11.9319 4.24825C11.8642 4.13556 11.7548 4.05408 11.6274 4.02144C11.5001 3.9888 11.365 4.00764 11.2514 4.07388C11.1378 4.14011 11.0549 4.24841 11.0206 4.37533C10.9863 4.50225 11.0034 4.63757 11.0681 4.752C11.6584 5.76388 12 6.61982 12 8.00013C12 8.74482 11.8972 9.34013 11.7072 9.89544C11.6919 9.93971 11.6894 9.98738 11.6999 10.033C11.7104 10.0786 11.7335 10.1204 11.7666 10.1536L12.1562 10.5439C12.1857 10.5734 12.2221 10.595 12.262 10.6069C12.302 10.6187 12.3443 10.6204 12.3851 10.6117C12.4259 10.6031 12.4638 10.5844 12.4955 10.5573C12.5272 10.5302 12.5516 10.4956 12.5666 10.4567C12.8438 9.74263 13 8.977 13 8.00013Z" fill="#4F4E4E"/>
<path d="M15 7.99989C15 5.67957 14.3691 4.2152 13.4216 2.73082C13.3502 2.61894 13.2373 2.53998 13.1078 2.51132C12.9782 2.48266 12.8425 2.50665 12.7306 2.57801C12.6188 2.64937 12.5398 2.76226 12.5111 2.89183C12.4825 3.02141 12.5065 3.15706 12.5778 3.26895C13.4319 4.60551 14 5.92176 14 7.99989C14 9.44332 13.7366 10.5083 13.2991 11.4539C13.2776 11.5003 13.2709 11.5521 13.2798 11.6024C13.2887 11.6526 13.3128 11.699 13.3488 11.7352L13.7213 12.1077C13.7494 12.1363 13.7841 12.1577 13.8223 12.1701C13.8605 12.1825 13.9011 12.1856 13.9407 12.1789C13.9803 12.1723 14.0177 12.1563 14.0498 12.1321C14.0819 12.108 14.1077 12.0764 14.125 12.0402C14.7375 10.778 15 9.53114 15 7.99989Z" fill="#4F4E4E"/>
</svg>
