<svg width="16" height="16" viewBox="0 0 16 16" fill="none" xmlns="http://www.w3.org/2000/svg">
<path fill-rule="evenodd" clip-rule="evenodd" d="M14.0045 0.471892C14.2825 0.395464 14.5785 0.418767 14.8411 0.537757C15.1037 0.656747 15.3164 0.863916 15.4422 1.12332C15.5268 1.29475 15.5702 1.48218 15.5714 1.67189V9.93475C15.5752 9.99265 15.5771 10.0509 15.5771 10.1096C15.5771 10.6952 15.3853 11.2647 15.0311 11.7311C14.6769 12.1975 14.1797 12.535 13.6156 12.6922C13.0515 12.8494 12.4514 12.8176 11.907 12.6016C11.3627 12.3856 10.9041 11.9973 10.6012 11.496C10.2983 10.9948 10.1679 10.4082 10.2299 9.82587C10.2918 9.24353 10.5427 8.69748 10.9442 8.27118C11.3458 7.84488 11.8758 7.56176 12.4534 7.4651C13.031 7.36844 13.6244 7.46355 14.1428 7.73589V5.24789L6.07653 7.48789V12.5336C6.08263 12.6045 6.08568 12.6757 6.08568 12.7473C6.08554 13.3328 5.89379 13.9021 5.53971 14.3683C5.18563 14.8345 4.68867 15.172 4.12475 15.3293C3.56083 15.4866 2.96093 15.4549 2.41668 15.2392C1.87243 15.0235 1.41373 14.6356 1.11065 14.1347C0.807568 13.6338 0.676758 13.0475 0.738198 12.4653C0.799637 11.8831 1.04995 11.337 1.45091 10.9104C1.85186 10.4839 2.38142 10.2002 2.95871 10.1029C3.536 10.0055 4.12929 10.0998 4.64796 10.3713V4.04903C4.65026 3.77722 4.7406 3.51348 4.90544 3.29733C5.07028 3.08119 5.30073 2.9243 5.56225 2.85018L13.9988 0.473035L14.0045 0.471892ZM6.07653 6.00561L14.1428 3.76561V1.91646L6.07653 4.18961V6.00561Z" fill="#4F4E4E"/>
</svg>
